#Comment line ignore any data following # character 
#Hierarchical Translation and Rotation (.htr) file 
[Header]	
#Header keywords are followed by a single value 
FileType HTR		#Single word string
DataType HTRS		#Translation followed by rotation and scale data
FileVersion 1		#integer
NumSegments 64		#integer
NumFrames 3		#integer
DataFrameRate 30		#integer, data frame rate in this file
EulerRotationOrder ZYX
CalibrationUnits mm
RotationUnits Degrees
GlobalAxisofGravity Y
BoneLengthAxis Y
ScaleFactor 1.00
[SegmentNames&Hierarchy]
#CHILD	PARENT
Pinger_Root GLOBAL
Pelvis Pinger_Root
L_Hip Pelvis
R_Hip Pelvis
Rear_Leg01 Pelvis
Spine1 Pelvis
L_Leg01 L_Hip
L_Leg02 L_Leg01
L_Leg03 L_Leg02
L_Foot L_Leg03
L_Toe1_01 L_Foot
L_Toe2_01 L_Foot
L_Toe3_01 L_Foot
planeAlignerLeft L_Foot
L_Toe1_02 L_Toe1_01
L_Toe1_03 L_Toe1_02
L_Toe2_02 L_Toe2_01
L_Toe2_03 L_Toe2_02
L_Toe3_02 L_Toe3_01
L_Toe3_03 L_Toe3_02
planeLockWeightLeft planeAlignerLeft
R_Leg01 R_Hip
R_Leg02 R_Leg01
R_Leg03 R_Leg02
R_Foot R_Leg03
planeAlignerRight R_Foot
R_Toe1_01 R_Foot
R_Toe2_01 R_Foot
R_Toe3_01 R_Foot
planeLockWeightRight planeAlignerRight
R_Toe1_02 R_Toe1_01
R_Toe1_03 R_Toe1_02
R_Toe2_02 R_Toe2_01
R_Toe2_03 R_Toe2_02
R_Toe3_02 R_Toe3_01
R_Toe3_03 R_Toe3_02
Rear_Leg02 Rear_Leg01
Rear_Leg03 Rear_Leg02
Rear_Leg04 Rear_Leg03
Rear_Foot Rear_Leg04
planeAlignerCenter Rear_Foot
Rear_Toe1_01 Rear_Foot
Rear_Toe2_01 Rear_Foot
Rear_Toe3_01 Rear_Foot
planeLockWeightCenter planeAlignerCenter
Rear_Toe1_02 Rear_Toe1_01
Rear_Toe1_03 Rear_Toe1_02
Rear_Toe2_02 Rear_Toe2_01
Rear_Toe2_03 Rear_Toe2_02
Rear_Toe3_02 Rear_Toe3_01
Rear_Toe3_03 Rear_Toe3_02
Back_Bone Spine1
Head Spine1
Motor_Bone Back_Bone
Ping_Mechanism Back_Bone
BN_LookIK Head
bottomMouth Head
L_Mouth01 Head
L_mouthFront Head
mouthGun Head
R_Mouth01 Head
R_mouthFront Head
TopMouth Head
weapon_bone Head
[BasePosition]
#SegmentName Tx, Ty, Tz, Rx, Ry, Rz, BoneLength
Pinger_Root 0.000000 0.000000 0.000000 -90.000000 0.000000 0.000000 10.000000 
Pelvis 0.000000 0.000000 0.000000 0.000000 0.000000 0.000000 10.000000 
L_Hip 0.000000 0.000000 0.000000 0.000000 0.000000 0.000000 10.000000 
R_Hip 0.000000 0.000000 0.000000 0.000000 0.000000 0.000000 10.000000 
Rear_Leg01 0.000000 0.000000 0.000000 0.000000 0.000000 0.000000 10.000000 
Spine1 0.000000 0.000000 0.000000 0.000000 0.000000 0.000000 10.000000 
L_Leg01 0.000000 0.000000 0.000000 0.000000 0.000000 0.000000 10.000000 
L_Leg02 0.000000 0.000000 0.000000 0.000000 0.000000 0.000000 10.000000 
L_Leg03 0.000000 0.000000 0.000000 0.000000 0.000000 0.000000 10.000000 
L_Foot 0.000000 0.000000 0.000000 0.000000 0.000000 0.000000 10.000000 
L_Toe1_01 0.000000 0.000000 0.000000 0.000000 0.000000 0.000000 10.000000 
L_Toe2_01 0.000000 0.000000 0.000000 0.000000 0.000000 0.000000 10.000000 
L_Toe3_01 0.000000 0.000000 0.000000 0.000000 0.000000 0.000000 10.000000 
planeAlignerLeft 0.000000 0.000000 0.000000 0.000000 0.000000 0.000000 10.000000 
L_Toe1_02 0.000000 0.000000 0.000000 0.000000 0.000000 0.000000 10.000000 
L_Toe1_03 0.000000 0.000000 0.000000 0.000000 0.000000 0.000000 10.000000 
L_Toe2_02 0.000000 0.000000 0.000000 0.000000 0.000000 0.000000 10.000000 
L_Toe2_03 0.000000 0.000000 0.000000 0.000000 0.000000 0.000000 10.000000 
L_Toe3_02 0.000000 0.000000 0.000000 0.000000 0.000000 0.000000 10.000000 
L_Toe3_03 0.000000 0.000000 0.000000 0.000000 0.000000 0.000000 10.000000 
planeLockWeightLeft 0.000000 0.000000 0.000000 0.000000 0.000000 0.000000 10.000000 
R_Leg01 0.000000 0.000000 0.000000 0.000000 0.000000 0.000000 10.000000 
R_Leg02 0.000000 0.000000 0.000000 0.000000 0.000000 0.000000 10.000000 
R_Leg03 0.000000 0.000000 0.000000 0.000000 0.000000 0.000000 10.000000 
R_Foot 0.000000 0.000000 0.000000 0.000000 0.000000 0.000000 10.000000 
planeAlignerRight 0.000000 0.000000 0.000000 0.000000 0.000000 0.000000 10.000000 
R_Toe1_01 0.000000 0.000000 0.000000 0.000000 0.000000 0.000000 10.000000 
R_Toe2_01 0.000000 0.000000 0.000000 0.000000 0.000000 0.000000 10.000000 
R_Toe3_01 0.000000 0.000000 0.000000 0.000000 0.000000 0.000000 10.000000 
planeLockWeightRight 0.000000 0.000000 0.000000 0.000000 0.000000 0.000000 10.000000 
R_Toe1_02 0.000000 0.000000 0.000000 0.000000 0.000000 0.000000 10.000000 
R_Toe1_03 0.000000 0.000000 0.000000 0.000000 0.000000 0.000000 10.000000 
R_Toe2_02 0.000000 0.000000 0.000000 0.000000 0.000000 0.000000 10.000000 
R_Toe2_03 0.000000 0.000000 0.000000 0.000000 0.000000 0.000000 10.000000 
R_Toe3_02 0.000000 0.000000 0.000000 0.000000 0.000000 0.000000 10.000000 
R_Toe3_03 0.000000 0.000000 0.000000 0.000000 0.000000 0.000000 10.000000 
Rear_Leg02 0.000000 0.000000 0.000000 0.000000 0.000000 0.000000 10.000000 
Rear_Leg03 0.000000 0.000000 0.000000 0.000000 0.000000 0.000000 10.000000 
Rear_Leg04 0.000000 0.000000 0.000000 0.000000 0.000000 0.000000 10.000000 
Rear_Foot 0.000000 0.000000 0.000000 0.000000 0.000000 0.000000 10.000000 
planeAlignerCenter 0.000000 0.000000 0.000000 0.000000 0.000000 0.000000 10.000000 
Rear_Toe1_01 0.000000 0.000000 0.000000 0.000000 0.000000 0.000000 10.000000 
Rear_Toe2_01 0.000000 0.000000 0.000000 0.000000 0.000000 0.000000 10.000000 
Rear_Toe3_01 0.000000 0.000000 0.000000 0.000000 0.000000 0.000000 10.000000 
planeLockWeightCenter 0.000000 0.000000 0.000000 0.000000 0.000000 0.000000 10.000000 
Rear_Toe1_02 0.000000 0.000000 0.000000 0.000000 0.000000 0.000000 10.000000 
Rear_Toe1_03 0.000000 0.000000 0.000000 0.000000 0.000000 0.000000 10.000000 
Rear_Toe2_02 0.000000 0.000000 0.000000 0.000000 0.000000 0.000000 10.000000 
Rear_Toe2_03 0.000000 0.000000 0.000000 0.000000 0.000000 0.000000 10.000000 
Rear_Toe3_02 0.000000 0.000000 0.000000 0.000000 0.000000 0.000000 10.000000 
Rear_Toe3_03 0.000000 0.000000 0.000000 0.000000 0.000000 0.000000 10.000000 
Back_Bone 0.000000 0.000000 0.000000 0.000000 0.000000 0.000000 10.000000 
Head 0.000000 0.000000 0.000000 0.000000 0.000000 0.000000 10.000000 
Motor_Bone 0.000000 0.000000 0.000000 0.000000 0.000000 0.000000 10.000000 
Ping_Mechanism 0.000000 0.000000 0.000000 0.000000 0.000000 0.000000 10.000000 
BN_LookIK 0.000000 0.000000 0.000000 0.000000 0.000000 0.000000 10.000000 
bottomMouth 0.000000 0.000000 0.000000 0.000000 0.000000 0.000000 10.000000 
L_Mouth01 0.000000 0.000000 0.000000 0.000000 0.000000 0.000000 10.000000 
L_mouthFront 0.000000 0.000000 0.000000 0.000000 0.000000 0.000000 10.000000 
mouthGun 0.000000 0.000000 0.000000 0.000000 0.000000 0.000000 10.000000 
R_Mouth01 0.000000 0.000000 0.000000 0.000000 0.000000 0.000000 10.000000 
R_mouthFront 0.000000 0.000000 0.000000 0.000000 0.000000 0.000000 10.000000 
TopMouth 0.000000 0.000000 0.000000 0.000000 0.000000 0.000000 10.000000 
weapon_bone 0.000000 0.000000 0.000000 0.000000 0.000000 0.000000 10.000000 
#Beginning of Data. Separated by tabs
#Fr	Tx	Ty	Tz	Rx	Ry	Rz	SF
[Pinger_Root]
19 0.000000 0.000000 0.000000 -0.000075 -0.000000 -0.000020 0.000000
20 0.000000 0.000000 0.000000 -0.000075 -0.000000 -0.000020 0.000000
21 0.000000 0.000000 0.000000 -0.000075 -0.000000 -0.000020 0.000000
[Pelvis]
19 427.434326 -99.039238 4960.442383 -120.902534 -75.557968 66.127335 4979.809082
20 530.847351 -163.017532 5009.041016 -109.782921 -76.648766 55.093777 5039.728516
21 646.243713 -186.351913 5059.363770 -102.029678 -77.099983 47.786888 5103.873047
[L_Hip]
19 5.766392 125.831482 872.656799 178.273712 -80.858322 91.051956 881.701050
20 5.766392 125.831482 872.656799 -179.242462 -81.550919 88.421829 881.701050
21 5.766392 125.831482 872.656799 -178.919113 -81.630135 88.081352 881.701050
[R_Hip]
19 5.765438 125.836372 -872.654907 3.340979 81.147850 92.284683 881.699829
20 5.765438 125.836372 -872.654907 -0.342062 81.626419 88.733437 881.699829
21 5.765438 125.836372 -872.654907 -0.804328 81.680771 88.288727 881.699829
[Rear_Leg01]
19 -192.298416 -925.602966 -0.001907 -178.497345 -9.337136 -146.949692 945.367432
20 -192.298416 -925.602966 -0.001907 172.053604 -12.594868 -150.687698 945.367432
21 -192.298416 -925.602966 -0.001907 165.767960 -21.083107 -155.165054 945.367432
[Spine1]
19 290.604584 5.007505 0.000477 43.151600 -12.667030 8.825431 290.647736
20 290.604584 5.007505 0.000477 42.598270 -15.784041 8.949307 290.647736
21 290.604584 5.007505 0.000477 42.188217 -17.627214 9.321888 290.647736
[L_Leg01]
19 761.932007 -0.002384 -0.069261 53.993309 -52.356674 -47.121952 761.932068
20 761.932007 -0.002384 -0.069261 53.256859 -42.974735 -57.767147 761.932068
21 761.932007 -0.002384 -0.069261 53.289398 -39.355793 -62.337704 761.932068
[L_Leg02]
19 1441.140503 -0.000954 -0.000715 0.217035 -0.014247 -119.366928 1441.140503
20 1441.140503 -0.000954 -0.000715 -1.182139 0.329474 -103.162422 1441.140503
21 1441.140503 -0.000954 -0.000715 -1.484847 0.460805 -95.323051 1441.140503
[L_Leg03]
19 1686.963989 -0.000715 -0.000954 0.009228 -0.001446 107.814346 1686.963989
20 1686.963989 -0.000715 -0.000954 0.012208 -0.005291 106.387894 1686.963989
21 1686.963989 -0.000715 -0.000954 0.026242 -0.006568 103.248314 1686.963989
[L_Foot]
19 3041.570068 -30.715107 11.297464 -7.291739 24.376549 48.991180 3041.746094
20 3041.570068 -30.715107 11.297464 -5.454949 17.738039 46.027309 3041.746094
21 3041.570068 -30.715107 11.297464 -5.342190 15.125814 45.813911 3041.746094
[L_Toe1_01]
19 -188.216690 -224.732346 -21.137953 89.642624 -8.199923 -156.679749 293.899567
20 -188.216690 -224.732346 -21.137953 89.790848 -5.107391 -162.456619 293.899567
21 -188.216690 -224.732346 -21.137953 89.699348 -3.374840 -165.449036 293.899567
[L_Toe2_01]
19 200.746536 -219.926590 148.838394 -74.086121 -17.180414 -54.016304 332.896027
20 200.746536 -219.926590 148.838394 -76.329903 -15.585325 -47.796452 332.896027
21 200.746536 -219.926590 148.838394 -77.584976 -14.474030 -44.187057 332.896027
[L_Toe3_01]
19 188.832520 -219.859131 -191.078659 -105.100388 7.135571 -51.990967 347.140900
20 188.832520 -219.859131 -191.078659 -105.187195 12.056152 -47.366547 347.140900
21 188.832520 -219.859131 -191.078659 -105.094322 14.710035 -44.951874 347.140900
[planeAlignerLeft]
19 -3.480497 -712.653625 126.091476 0.000000 -90.000000 -90.001633 723.730896
20 -10.629259 -643.507507 61.845631 0.000000 -90.000000 -90.001633 646.559937
21 -11.900020 -606.275269 27.254082 0.000000 -90.000000 -90.001633 607.004211
[L_Toe1_02]
19 413.761139 0.000477 0.000000 0.001397 -24.274872 0.001397 413.761139
20 413.761139 0.000477 0.000000 0.001407 -23.097466 0.001407 413.761139
21 413.761139 0.000477 0.000000 0.001412 -22.421450 0.001412 413.761139
[L_Toe1_03]
19 464.317322 0.000358 -0.000089 0.007453 71.879906 0.007453 464.317322
20 464.317322 0.000358 -0.000089 0.011293 78.069832 0.011293 464.317322
21 464.317322 0.000358 -0.000089 0.015052 81.056068 0.015052 464.317322
[L_Toe2_02]
19 342.235809 -0.000477 0.000238 0.001189 -72.193649 0.001189 342.235809
20 342.235809 -0.000477 0.000238 0.001182 -76.350540 0.001182 342.235809
21 342.235809 -0.000477 0.000238 0.001180 -77.741257 0.001180 342.235809
[L_Toe2_03]
19 420.210846 -0.000715 0.000000 0.027084 85.032806 0.027084 420.210846
20 420.210846 -0.000715 0.000000 -179.992828 82.626877 -179.989304 420.210846
21 420.210846 -0.000715 0.000000 -179.996613 77.155983 -179.993103 420.210846
[L_Toe3_02]
19 329.270111 0.000954 0.000000 0.001178 -80.131668 0.001178 329.270111
20 329.270111 0.000954 0.000000 0.001177 -81.494835 0.001177 329.270111
21 329.270111 0.000954 0.000000 0.001177 -81.880569 0.001177 329.270111
[L_Toe3_03]
19 439.137451 -0.001907 0.000954 -179.995438 79.545433 -179.991928 439.137451
20 439.137451 -0.001907 0.000954 -179.997559 74.299263 -179.994019 439.137451
21 439.137451 -0.001907 0.000954 -179.997986 72.516464 -179.994446 439.137451
[planeLockWeightLeft]
19 1000.000366 0.000000 -0.000021 -0.011826 -0.004376 0.005620 1000.000366
20 1000.000366 0.000000 -0.000089 -0.011826 -0.004376 0.005620 1000.000366
21 1000.000244 0.000000 -0.000157 -0.011826 -0.004376 0.005620 1000.000244
[R_Leg01]
19 761.455627 -0.001907 -0.000358 92.456314 -11.056950 96.709190 761.455688
20 761.455627 -0.001907 -0.000358 92.230202 -11.691166 95.799324 761.455688
21 761.455627 -0.001907 -0.000358 92.660767 -11.174008 95.294151 761.455688
[R_Leg02]
19 1441.140625 0.000000 -0.000238 0.164390 -0.005053 -90.551102 1441.140625
20 1441.140625 0.000000 -0.000238 0.175412 -0.018721 -93.016998 1441.140625
21 1441.140625 0.000000 -0.000238 0.179191 -0.029073 -93.044296 1441.140625
[R_Leg03]
19 1686.963989 0.000954 0.001431 -0.088990 0.011052 86.212761 1686.963989
20 1686.963989 0.000954 0.001431 -0.081875 0.012160 87.438255 1686.963989
21 1686.963989 0.000954 0.001431 -0.085529 0.015134 86.844391 1686.963989
[R_Foot]
19 3041.560059 -30.531288 -11.204481 -1.443804 -20.803823 96.146271 3041.734131
20 3041.560059 -30.531288 -11.204481 -2.900151 -20.633135 97.209976 3041.734131
21 3041.560059 -30.531288 -11.204481 -4.034901 -20.427847 98.665215 3041.734131
[planeAlignerRight]
19 33.897247 -626.544495 12.213074 0.000000 -89.951546 -90.004936 627.579590
20 13.212625 -660.592712 3.892839 0.000000 -89.951546 -90.004936 660.736328
21 -0.897849 -688.308105 0.704510 0.000000 -89.951546 -90.004936 688.309082
[R_Toe1_01]
19 -188.383347 -224.864899 21.052242 90.782928 1.484412 -165.576981 294.101532
20 -188.383347 -224.864899 21.052242 90.682076 1.840473 -162.285950 294.101532
21 -188.383347 -224.864899 21.052242 90.727669 1.944209 -159.560333 294.101532
[R_Toe2_01]
19 200.637817 -220.002121 -148.787384 -101.619698 11.191421 -45.461662 332.857574
20 200.637817 -220.002121 -148.787384 -102.617340 11.404486 -47.990009 332.857574
21 200.637817 -220.002121 -148.787384 -103.219139 11.336224 -50.088661 332.857574
[R_Toe3_01]
19 188.606735 -220.092957 191.126343 -73.991608 -15.202444 -47.731323 347.192566
20 188.606735 -220.092957 191.126343 -73.312714 -14.531120 -49.998093 347.192566
21 188.606735 -220.092957 191.126343 -72.789764 -14.170835 -51.887386 347.192566
[planeLockWeightRight]
19 999.999512 0.000270 -0.000231 -0.011823 -0.004379 -0.000027 999.999512
20 999.999451 0.000277 -0.000244 -0.011823 -0.004379 -0.000027 999.999451
21 999.999390 0.000284 -0.000257 -0.011823 -0.004379 -0.000027 999.999390
[R_Toe1_02]
19 413.762085 0.000477 -0.000119 0.001423 -21.169943 0.001423 413.762085
20 413.762085 0.000477 -0.000119 0.001412 -22.431526 0.001412 413.762085
21 413.762085 0.000477 -0.000119 0.001406 -23.234346 0.001406 413.762085
[R_Toe1_03]
19 464.317810 0.000000 0.001088 0.008309 86.259270 0.010060 464.317810
20 464.317810 0.000000 0.001088 0.015030 81.043053 0.015030 464.317810
21 464.317810 0.000000 0.001088 0.010093 76.644440 0.010093 464.317810
[R_Toe2_02]
19 342.234741 -0.000954 0.000238 -0.002341 -75.765068 -0.002341 342.234741
20 342.234741 -0.000954 0.000238 -0.002341 -75.729004 -0.002341 342.234741
21 342.234741 -0.000954 0.000238 -0.002342 -75.288307 -0.002342 342.234741
[R_Toe2_03]
19 420.210846 0.000715 -0.000268 -179.987549 83.844124 -179.991043 420.210846
20 420.210846 0.000715 -0.000268 -179.986038 84.609879 -179.989532 420.210846
21 420.210846 0.000715 -0.000268 -179.984009 85.375565 -179.987503 420.210846
[R_Toe3_02]
19 329.270355 -0.000477 -0.000954 0.001179 -79.362663 0.001179 329.270355
20 329.270355 -0.000477 -0.000954 0.001179 -79.505493 0.001179 329.270355
21 329.270355 -0.000477 -0.000954 0.001179 -79.216682 0.001179 329.270355
[R_Toe3_03]
19 439.137939 0.000238 0.001431 -179.993195 82.298080 -179.989700 439.137939
20 439.137939 0.000238 0.001431 -179.993301 82.199608 -179.989807 439.137939
21 439.137939 0.000238 0.001431 -179.992615 82.785011 -179.989120 439.137939
[Rear_Leg02]
19 1162.777710 -0.029802 0.005960 11.026306 -25.731920 -76.406532 1162.777710
20 1162.777710 -0.029802 0.005960 22.280085 -21.203989 -96.252136 1162.777710
21 1162.777710 -0.029802 0.005960 26.672668 -17.087612 -103.887123 1162.777710
[Rear_Leg03]
19 607.192505 -0.013351 -0.073195 0.010481 -0.005128 68.494873 607.192505
20 607.192505 -0.013351 -0.073195 0.010164 -0.005731 75.182945 607.192505
21 607.192505 -0.013351 -0.073195 0.010037 -0.005951 77.688385 607.192505
[Rear_Leg04]
19 995.874512 -0.020504 -0.011921 -0.040156 -0.018882 66.993813 995.874573
20 995.874512 -0.020504 -0.011921 -0.045798 -0.016458 83.884102 995.874573
21 995.874512 -0.020504 -0.011921 -0.043436 -0.016674 92.157288 995.874573
[Rear_Foot]
19 3096.176270 -0.067472 -0.041425 -84.578209 62.003448 70.215729 3096.176270
20 3096.176270 -0.067472 -0.041425 -93.179008 60.822598 43.373032 3096.176270
21 3096.176270 -0.067472 -0.041425 -102.527306 64.263519 12.146535 3096.176270
[planeAlignerCenter]
19 0.399590 46.944157 -777.947937 9.066675 -0.001523 179.998215 779.363220
20 -0.108012 165.912262 -769.223450 3.172261 -0.001613 179.998306 786.912720
21 -0.642088 245.739426 -761.676758 0.001672 -0.001660 179.998337 800.337341
[Rear_Toe1_01]
19 0.653352 83.966492 -371.173737 0.252615 39.437767 90.324707 380.553192
20 0.653352 83.966492 -371.173737 0.166137 38.147839 90.152237 380.553192
21 0.653352 83.966492 -371.173737 0.101680 39.623989 90.048317 380.553192
[Rear_Toe2_01]
19 178.200760 -294.826019 -362.060547 1.269681 44.603699 -62.859066 499.765686
20 178.200760 -294.826019 -362.060547 12.334989 67.616043 -56.506493 499.765686
21 178.200760 -294.826019 -362.060547 62.021751 84.596153 -8.651854 499.765686
[Rear_Toe3_01]
19 -153.359680 -308.780914 -362.060852 1.265091 44.206745 -113.979378 499.952881
20 -153.359680 -308.780914 -362.060852 -9.475319 67.383804 -122.218857 499.952881
21 -153.359680 -308.780914 -362.060852 -63.779385 83.939445 -175.298553 499.952881
[planeLockWeightCenter]
19 1000.000122 0.000428 -0.000060 -0.011814 -0.004373 -0.000015 1000.000122
20 1000.000122 0.000415 -0.000048 -0.011814 -0.004373 -0.000015 1000.000122
21 1000.000122 0.000402 -0.000036 -0.011814 -0.004373 -0.000015 1000.000122
[Rear_Toe1_02]
19 379.707825 0.194073 0.000477 0.001332 -33.542122 0.001332 379.707855
20 379.707825 0.194073 0.000477 -0.000654 -32.900101 -0.000654 379.707855
21 379.707825 0.194073 0.000477 -0.002653 -32.258087 -0.002653 379.707855
[Rear_Toe1_03]
19 500.129700 0.165701 0.000119 -0.004940 69.058174 -0.001384 500.129761
20 500.129700 0.165701 0.000119 0.000000 89.508224 -0.003502 500.129761
21 500.129700 0.165701 0.000119 -179.984314 85.274612 -179.987808 500.129761
[Rear_Toe2_02]
19 340.494507 0.000238 -0.000954 0.001175 -84.425919 0.001175 340.494507
20 340.494507 0.000238 -0.000954 179.998825 -87.584106 179.998825 340.494507
21 340.494507 0.000238 -0.000954 179.998825 -87.442352 179.998825 340.494507
[Rear_Toe2_03]
19 433.103577 0.000000 0.000238 179.981873 82.580894 179.981873 433.103546
20 433.103577 0.000000 0.000238 -179.996185 56.514194 -179.999832 433.103546
21 433.103577 0.000000 0.000238 -179.996231 55.338253 -179.999893 433.103546
[Rear_Toe3_02]
19 340.494141 -0.000358 -0.000477 0.001176 -83.540901 0.001175 340.494171
20 340.494141 -0.000358 -0.000477 -179.997681 -87.679985 -179.997681 340.494171
21 340.494141 -0.000358 -0.000477 -179.996811 -87.526382 -179.996811 340.494171
[Rear_Toe3_03]
19 433.103577 0.001431 -0.000238 -179.989227 84.738091 -179.985733 433.103546
20 433.103577 0.001431 -0.000238 179.992218 57.020126 179.999512 433.103546
21 433.103577 0.001431 -0.000238 179.992371 55.589695 179.999695 433.103546
[Back_Bone]
19 1312.175781 -701.934692 0.000954 -2.399156 1.327130 -84.327354 1488.125488
20 1312.175781 -701.934692 0.000954 -2.664096 1.414649 -84.247948 1488.125488
21 1312.175781 -701.934692 0.000954 -2.870598 1.342644 -84.389481 1488.125488
[Head]
19 1406.159424 809.709290 0.001431 6.387356 -3.074845 3.527309 1622.625488
20 1406.159424 809.709290 0.001431 6.563463 -3.117795 3.230396 1622.625488
21 1406.159424 809.709290 0.001431 6.739794 -3.159832 2.933346 1622.625488
[Motor_Bone]
19 1158.364380 -417.834747 0.000477 -2.286770 0.124830 -105.859787 1231.419434
20 1158.364380 -417.834747 0.000477 -2.487354 0.128373 -105.855659 1231.419434
21 1158.364380 -417.834747 0.000477 -2.687933 0.131929 -105.851517 1231.419434
[Ping_Mechanism]
19 1277.663574 -465.553284 18.539865 0.000103 -0.000053 82.120995 1359.966064
20 1268.538818 -462.065094 29.465235 0.000103 -0.000053 82.120995 1350.393799
21 1262.705322 -459.653900 36.123440 0.000103 -0.000053 82.120995 1344.251221
[BN_LookIK]
19 193.241119 1380.371704 -0.002861 0.000000 89.965736 -31.038179 1393.832153
20 193.241119 1380.371704 -0.002861 0.000000 89.965736 -31.038179 1393.832153
21 193.241119 1380.371704 -0.002861 0.000000 89.965736 -31.038179 1393.832153
[bottomMouth]
19 -435.092926 615.759399 -0.000954 -0.000022 0.000016 73.527184 753.966492
20 -435.092926 615.759399 -0.000954 -0.000022 0.000016 73.527184 753.966492
21 -435.092926 615.759399 -0.000954 -0.000022 0.000016 73.527184 753.966492
[L_Mouth01]
19 554.440979 7.658243 838.222046 150.204178 23.759130 109.605339 1005.027161
20 554.440979 7.658243 838.222046 150.204178 23.759130 109.605339 1005.027161
21 554.440979 7.658243 838.222046 150.204178 23.759130 109.605339 1005.027161
[L_mouthFront]
19 551.629089 934.514771 339.150421 0.000081 2.804060 79.119301 1136.941284
20 551.629089 934.514771 339.150421 0.000081 2.804060 79.119301 1136.941284
21 551.629089 934.514771 339.150421 0.000081 2.804060 79.119301 1136.941284
[mouthGun]
19 55.332661 1627.420898 0.000000 0.000023 0.000009 -11.038128 1628.361328
20 55.332661 1627.420898 0.000000 0.000023 0.000009 -11.038128 1628.361328
21 55.332661 1627.420898 0.000000 0.000023 0.000009 -11.038128 1628.361328
[R_Mouth01]
19 554.442383 7.659197 -838.223938 29.795891 -23.759109 109.605331 1005.029541
20 554.442383 7.659197 -838.223938 29.795891 -23.759109 109.605331 1005.029541
21 554.442383 7.659197 -838.223938 29.795891 -23.759109 109.605331 1005.029541
[R_mouthFront]
19 551.629089 934.514282 -339.151367 0.000029 -2.803930 79.119133 1136.941162
20 551.629089 934.514282 -339.151367 0.000029 -2.803930 79.119133 1136.941162
21 551.629089 934.514282 -339.151367 0.000029 -2.803930 79.119133 1136.941162
[TopMouth]
19 461.269867 -56.106091 -0.008583 -0.000059 -0.000268 92.025169 464.669525
20 461.269867 -56.106091 -0.008583 -0.000059 -0.000268 92.025169 464.669525
21 461.269867 -56.106091 -0.008583 -0.000059 -0.000268 92.025169 464.669525
[weapon_bone]
19 -987.239868 1448.372803 0.001431 0.000000 89.965736 -31.038221 1752.833740
20 -987.239868 1448.372803 0.001431 0.000000 89.965736 -31.038221 1752.833740
21 -987.239868 1448.372803 0.001431 0.000000 89.965736 -31.038221 1752.833740
